<svg width="18" height="4" viewBox="0 0 18 4" fill="none" xmlns="http://www.w3.org/2000/svg">
<path d="M2.33341 0.333323C3.25389 0.333323 4.00008 1.07952 4.00008 1.99999C4.00008 2.92046 3.25389 3.66666 2.33341 3.66666C1.41294 3.66666 0.666748 2.92046 0.666748 1.99999C0.666748 1.07952 1.41294 0.333323 2.33341 0.333323Z" fill="#777777"/>
<path d="M9.00008 0.333323C9.92056 0.333323 10.6667 1.07952 10.6667 1.99999C10.6667 2.92046 9.92056 3.66666 9.00008 3.66666C8.07961 3.66666 7.33341 2.92046 7.33341 1.99999C7.33341 1.07952 8.07961 0.333323 9.00008 0.333323Z" fill="#777777"/>
<path d="M17.3334 1.99999C17.3334 1.07951 16.5872 0.333323 15.6667 0.333323C14.7463 0.333323 14.0001 1.07951 14.0001 1.99999C14.0001 2.92046 14.7463 3.66666 15.6667 3.66666C16.5872 3.66666 17.3334 2.92046 17.3334 1.99999Z" fill="#777777"/>
</svg>
